<svg width="189" height="67" viewBox="0 0 189 67" fill="none" xmlns="http://www.w3.org/2000/svg">
<circle cx="34.5" cy="34.5" r="32.5" fill="#FFEE02"/>
<path d="M13.6121 35.3298L34.5 18.318L55.3879 35.3298L58 32.185L34.5 13.0459L11 32.185L13.6121 35.3298Z" fill="black"/>
<path d="M34.5 22.3857L19.3481 34.7684V46.1205V49.9528V50.4136H49.6518V49.998V46.1205V34.8136L34.5 22.3857ZM34.1345 44.4484H28.521V39.2514H34.1345V44.4484ZM34.1345 38.5735H28.521V33.3764H34.1345V38.5735ZM40.4781 44.4484H34.8646V39.2514H40.4781V44.4484ZM40.4781 38.5735H34.8646V33.3764H40.4781V38.5735Z" fill="black"/>
<path d="M102.356 33.066C103.851 34.8393 104.598 36.828 104.598 39.032C104.547 41.5653 103.673 43.6933 101.976 45.416C100.304 47.1133 98.2647 47.962 95.858 47.962H85.864C84.0907 47.962 83.052 47.4807 82.748 46.518C82.596 46.0873 82.52 45.4287 82.52 44.542V23.452C82.52 22.844 82.5327 22.4007 82.558 22.122C82.6087 21.8433 82.7353 21.514 82.938 21.134C83.2927 20.45 84.2807 20.108 85.902 20.108H95.478C97.8087 20.108 99.7593 20.9187 101.33 22.54C102.977 24.1867 103.8 26.1627 103.8 28.468C103.8 30.14 103.319 31.6727 102.356 33.066ZM97.872 38.652C97.872 38.044 97.796 37.5627 97.644 37.208C97.5173 36.8533 97.2893 36.6 96.96 36.448C96.4533 36.2453 95.744 36.144 94.832 36.144C93.92 36.144 93.236 35.9667 92.78 35.612C92.324 35.2573 92.096 34.5353 92.096 33.446C92.096 32.3313 92.324 31.5967 92.78 31.242C93.2613 30.8873 94.0467 30.71 95.136 30.71C96.1493 30.71 96.7573 30.444 96.96 29.912C97.036 29.6333 97.074 29.1773 97.074 28.544C97.074 27.9107 96.8587 27.4673 96.428 27.214C96.0227 26.9607 95.402 26.834 94.566 26.834H89.246V41.236H95.478C97.074 41.236 97.872 40.3747 97.872 38.652ZM115.978 47.924C113.42 47.924 111.292 46.9613 109.594 45.036C107.922 43.0853 107.086 40.7167 107.086 37.93V31.28C107.086 30.672 107.099 30.2287 107.124 29.95C107.175 29.6713 107.289 29.342 107.466 28.962C107.821 28.278 108.809 27.936 110.43 27.936C112.204 27.936 113.242 28.4173 113.546 29.38C113.698 29.7853 113.774 30.4313 113.774 31.318V37.968C113.774 39.0067 114.066 39.8173 114.648 40.4C115.256 40.9827 116.054 41.274 117.042 41.274C118.056 41.274 118.866 40.97 119.474 40.362C120.108 39.754 120.424 38.956 120.424 37.968V31.242C120.424 30.6593 120.437 30.2287 120.462 29.95C120.513 29.646 120.64 29.304 120.842 28.924C121.172 28.2653 122.147 27.936 123.768 27.936C125.364 27.936 126.34 28.278 126.694 28.962C126.872 29.342 126.973 29.684 126.998 29.988C127.049 30.2667 127.074 30.6973 127.074 31.28V44.732C127.074 45.2893 127.049 45.72 126.998 46.024C126.973 46.3027 126.859 46.6193 126.656 46.974C126.276 47.6327 125.301 47.962 123.73 47.962C122.185 47.962 121.235 47.658 120.88 47.05C120.627 46.6193 120.5 46.1 120.5 45.492C120.399 45.6693 120.171 45.9227 119.816 46.252C119.462 46.5813 119.12 46.86 118.79 47.088C117.929 47.6453 116.992 47.924 115.978 47.924ZM130.131 31.318C130.131 30.7353 130.144 30.3047 130.169 30.026C130.22 29.722 130.334 29.38 130.511 29C130.866 28.3413 131.854 28.012 133.475 28.012C134.691 28.012 135.553 28.2273 136.059 28.658C136.49 29.0127 136.718 29.5573 136.743 30.292C136.769 30.5453 136.781 30.9127 136.781 31.394V44.694C136.781 45.2767 136.756 45.72 136.705 46.024C136.68 46.3027 136.566 46.632 136.363 47.012C136.034 47.6707 135.059 48 133.437 48C131.841 48 130.866 47.658 130.511 46.974C130.334 46.594 130.22 46.2647 130.169 45.986C130.144 45.7073 130.131 45.264 130.131 44.656V31.318ZM136.363 24.288C136.186 24.6427 135.857 24.896 135.375 25.048C134.894 25.2 134.248 25.276 133.437 25.276C132.652 25.276 132.019 25.2 131.537 25.048C131.056 24.896 130.714 24.63 130.511 24.25C130.334 23.87 130.22 23.5407 130.169 23.262C130.144 22.958 130.131 22.5147 130.131 21.932C130.131 21.3493 130.144 20.9187 130.169 20.64C130.22 20.336 130.334 20.0067 130.511 19.652C130.866 18.968 131.854 18.626 133.475 18.626C135.071 18.626 136.034 18.968 136.363 19.652C136.566 20.032 136.68 20.374 136.705 20.678C136.756 20.9567 136.781 21.3873 136.781 21.97C136.781 22.5527 136.756 22.996 136.705 23.3C136.68 23.5787 136.566 23.908 136.363 24.288ZM139.817 21.894C139.817 21.3113 139.83 20.8807 139.855 20.602C139.906 20.298 140.02 19.956 140.197 19.576C140.552 18.892 141.54 18.55 143.161 18.55C144.706 18.55 145.669 18.892 146.049 19.576C146.252 19.956 146.366 20.298 146.391 20.602C146.442 20.906 146.467 21.3493 146.467 21.932V39.526C146.467 40.438 146.543 41.0207 146.695 41.274C146.847 41.502 147.176 41.616 147.683 41.616C148.215 41.616 148.57 41.6413 148.747 41.692C148.924 41.7173 149.14 41.8187 149.393 41.996C149.9 42.3253 150.153 43.2247 150.153 44.694C150.153 46.29 149.9 47.2653 149.393 47.62C148.734 48.076 147.164 48.152 144.681 47.848C142.73 47.5947 141.464 46.9487 140.881 45.91C140.172 44.6687 139.817 42.6927 139.817 39.982V21.894ZM162.355 34.7L159.885 34.548V39.792C159.885 40.476 159.986 40.97 160.189 41.274C160.417 41.578 160.822 41.73 161.405 41.73C162.013 41.73 162.469 41.7553 162.773 41.806C163.102 41.8313 163.444 41.9453 163.799 42.148C164.382 42.4773 164.673 43.326 164.673 44.694C164.673 46.29 164.318 47.2653 163.609 47.62C163.229 47.7973 162.887 47.9113 162.583 47.962C162.304 47.9873 161.886 48 161.329 48C158.694 48 156.693 47.4047 155.325 46.214C153.957 45.0233 153.273 43.0093 153.273 40.172V34.548C152.792 34.624 152.272 34.662 151.715 34.662C151.158 34.662 150.689 34.4467 150.309 34.016C149.954 33.5853 149.777 32.8507 149.777 31.812C149.777 30.7733 149.84 30.026 149.967 29.57C150.094 29.0887 150.271 28.7467 150.499 28.544C150.904 28.2147 151.411 28.05 152.019 28.05L153.273 28.202V24.288C153.273 23.7053 153.286 23.2747 153.311 22.996C153.362 22.7173 153.488 22.4133 153.691 22.084C154.02 21.4507 154.996 21.134 156.617 21.134C158.34 21.134 159.366 21.6027 159.695 22.54C159.822 22.9453 159.885 23.5913 159.885 24.478V28.202C161 28.1007 161.836 28.05 162.393 28.05C162.976 28.05 163.406 28.0753 163.685 28.126C163.989 28.1513 164.331 28.2653 164.711 28.468C165.37 28.7973 165.699 29.7727 165.699 31.394C165.699 32.99 165.357 33.9653 164.673 34.32C164.293 34.4973 163.951 34.6113 163.647 34.662C163.368 34.6873 162.938 34.7 162.355 34.7ZM185.861 28.202C187.355 28.8607 188.103 29.6587 188.103 30.596C188.103 31.052 188.001 31.4827 187.799 31.888C187.596 32.2933 187.495 32.5087 187.495 32.534L177.539 54.802C177.336 55.2833 177.159 55.6507 177.007 55.904C176.88 56.1573 176.665 56.398 176.361 56.626C176.057 56.854 175.677 56.968 175.221 56.968C174.765 56.968 174.093 56.778 173.207 56.398C171.712 55.7393 170.965 54.954 170.965 54.042C170.965 53.434 172.181 50.5333 174.613 45.34L167.051 32.61C166.544 31.774 166.291 31.1533 166.291 30.748C166.291 29.9373 166.975 29.1267 168.343 28.316C169.204 27.8093 169.875 27.556 170.357 27.556C170.838 27.556 171.231 27.6573 171.535 27.86C171.839 28.0627 172.054 28.278 172.181 28.506C172.333 28.7087 173.029 29.8867 174.271 32.04C175.537 34.168 176.741 36.1567 177.881 38.006C178.007 37.6007 178.691 36.0427 179.933 33.332C181.174 30.596 181.833 29.1393 181.909 28.962C182.01 28.7847 182.162 28.5693 182.365 28.316C182.694 27.8853 183.15 27.67 183.733 27.67C184.341 27.67 185.05 27.8473 185.861 28.202Z" fill="white"/>
</svg>
